<svg xmlns="http://www.w3.org/2000/svg" viewBox="0 0 1080 1350" width="1080" height="1350">
  <rect width="1080" height="1350" fill="#080808"/>
  
  <defs>
    <pattern id="g2" width="60" height="60" patternUnits="userSpaceOnUse">
      <path d="M 60 0 L 0 0 0 60" fill="none" stroke="white" stroke-width="0.7" opacity="0.09"/>
    </pattern>
  </defs>
  <rect width="1080" height="1350" fill="url(#g2)"/>
  <defs>
    <radialGradient id="jg" cx="50%" cy="50%" r="50%"><stop offset="0" stop-color="#FF5898" stop-opacity="0.28"/><stop offset="1" stop-color="#FF5898" stop-opacity="0"/></radialGradient>
  </defs>
  <path d="M 120 840 L 120 600 L 360 600 L 360 480 L 720 480 L 720 240" fill="none" stroke="#FF5898" stroke-width="1.5" stroke-linecap="round" stroke-linejoin="round" opacity="0.55"/>
  <circle cx="120" cy="840" r="3.5" fill="#FF5898" opacity="0.55"/>
  <circle cx="120" cy="600" r="3.5" fill="#FF5898" opacity="0.55"/>
  <circle cx="360" cy="600" r="3.5" fill="#FF5898" opacity="0.55"/>
  <circle cx="360" cy="480" r="3.5" fill="#FF5898" opacity="0.55"/>
  <circle cx="720" cy="480" r="3.5" fill="#FF5898" opacity="0.55"/>
  <circle cx="720" cy="240" r="3.5" fill="#FF5898" opacity="0.55"/>
  <path d="M 0 600 L 240 600 L 240 840 L 480 840 L 480 960 L 840 960" fill="none" stroke="#FF5898" stroke-width="1.5" stroke-linecap="round" stroke-linejoin="round" opacity="0.38"/>
  <circle cx="0" cy="600" r="3.5" fill="#FF5898" opacity="0.38"/>
  <circle cx="240" cy="600" r="3.5" fill="#FF5898" opacity="0.38"/>
  <circle cx="240" cy="840" r="3.5" fill="#FF5898" opacity="0.38"/>
  <circle cx="480" cy="840" r="3.5" fill="#FF5898" opacity="0.38"/>
  <circle cx="480" cy="960" r="3.5" fill="#FF5898" opacity="0.38"/>
  <circle cx="840" cy="960" r="3.5" fill="#FF5898" opacity="0.38"/>
  <path d="M 360 1080 L 360 960 L 600 960 L 600 720 L 840 720 L 840 480 L 960 480" fill="none" stroke="#FF5898" stroke-width="1.5" stroke-linecap="round" stroke-linejoin="round" opacity="0.48"/>
  <circle cx="360" cy="1080" r="3.5" fill="#FF5898" opacity="0.48"/>
  <circle cx="360" cy="960" r="3.5" fill="#FF5898" opacity="0.48"/>
  <circle cx="600" cy="960" r="3.5" fill="#FF5898" opacity="0.48"/>
  <circle cx="600" cy="720" r="3.5" fill="#FF5898" opacity="0.48"/>
  <circle cx="840" cy="720" r="3.5" fill="#FF5898" opacity="0.48"/>
  <circle cx="840" cy="480" r="3.5" fill="#FF5898" opacity="0.48"/>
  <circle cx="960" cy="480" r="3.5" fill="#FF5898" opacity="0.48"/>
  <path d="M 120 1080 L 240 1080 L 240 840 L 480 840 L 480 600 L 600 600 L 600 360" fill="none" stroke="#FF5898" stroke-width="1.5" stroke-linecap="round" stroke-linejoin="round" opacity="0.28"/>
  <circle cx="120" cy="1080" r="3.5" fill="#FF5898" opacity="0.28"/>
  <circle cx="240" cy="1080" r="3.5" fill="#FF5898" opacity="0.28"/>
  <circle cx="240" cy="840" r="3.5" fill="#FF5898" opacity="0.28"/>
  <circle cx="480" cy="840" r="3.5" fill="#FF5898" opacity="0.28"/>
  <circle cx="480" cy="600" r="3.5" fill="#FF5898" opacity="0.28"/>
  <circle cx="600" cy="600" r="3.5" fill="#FF5898" opacity="0.28"/>
  <circle cx="600" cy="360" r="3.5" fill="#FF5898" opacity="0.28"/>
  <path d="M 0 480 L 120 480 L 120 240 L 360 240 L 360 120" fill="none" stroke="#FF5898" stroke-width="1.5" stroke-linecap="round" stroke-linejoin="round" opacity="0.22"/>
  <circle cx="0" cy="480" r="3.5" fill="#FF5898" opacity="0.22"/>
  <circle cx="120" cy="480" r="3.5" fill="#FF5898" opacity="0.22"/>
  <circle cx="120" cy="240" r="3.5" fill="#FF5898" opacity="0.22"/>
  <circle cx="360" cy="240" r="3.5" fill="#FF5898" opacity="0.22"/>
  <circle cx="360" cy="120" r="3.5" fill="#FF5898" opacity="0.22"/>
  <path d="M 480 1080 L 480 960 L 720 960 L 720 840 L 960 840 L 960 720" fill="none" stroke="#FF5898" stroke-width="1.5" stroke-linecap="round" stroke-linejoin="round" opacity="0.32"/>
  <circle cx="480" cy="1080" r="3.5" fill="#FF5898" opacity="0.32"/>
  <circle cx="480" cy="960" r="3.5" fill="#FF5898" opacity="0.32"/>
  <circle cx="720" cy="960" r="3.5" fill="#FF5898" opacity="0.32"/>
  <circle cx="720" cy="840" r="3.5" fill="#FF5898" opacity="0.32"/>
  <circle cx="960" cy="840" r="3.5" fill="#FF5898" opacity="0.32"/>
  <circle cx="960" cy="720" r="3.5" fill="#FF5898" opacity="0.32"/>
  <ellipse cx="360" cy="480" rx="194" ry="194" fill="url(#jg)"/>
  <circle cx="360" cy="480" r="5" fill="#FF5898" opacity="0.9"/>
  <circle cx="360" cy="480" r="2.5" fill="white" opacity="0.8"/>
</svg>