<svg xmlns="http://www.w3.org/2000/svg" viewBox="0 0 1080 1350" width="1080" height="1350">
  <rect width="1080" height="1350" fill="#080808"/>
  
  <defs>
    <radialGradient id="dfg" cx="378" cy="675" r="324" gradientUnits="userSpaceOnUse"><stop offset="0" stop-color="#FF5898" stop-opacity="0.18"/><stop offset="1" stop-color="#FF5898" stop-opacity="0"/></radialGradient>
  </defs>
  <circle cx="55.1" cy="63.2" r="1.2" fill="white" opacity="0.15"/>
  <circle cx="98.5" cy="64.8" r="1.2" fill="white" opacity="0.16"/>
  <circle cx="148.5" cy="68.4" r="1.3" fill="white" opacity="0.17"/>
  <circle cx="196.0" cy="63.7" r="1.3" fill="white" opacity="0.18"/>
  <circle cx="238.5" cy="63.2" r="1.4" fill="white" opacity="0.19"/>
  <circle cx="283.2" cy="67.0" r="1.4" fill="white" opacity="0.19"/>
  <circle cx="327.9" cy="64.6" r="1.4" fill="white" opacity="0.20"/>
  <circle cx="379.2" cy="67.4" r="1.4" fill="white" opacity="0.20"/>
  <circle cx="422.0" cy="67.7" r="1.4" fill="white" opacity="0.20"/>
  <circle cx="473.0" cy="63.1" r="1.4" fill="white" opacity="0.19"/>
  <circle cx="519.3" cy="68.6" r="1.4" fill="white" opacity="0.19"/>
  <circle cx="561.9" cy="64.2" r="1.3" fill="white" opacity="0.18"/>
  <circle cx="613.1" cy="65.7" r="1.3" fill="white" opacity="0.17"/>
  <circle cx="652.5" cy="63.8" r="1.2" fill="white" opacity="0.16"/>
  <circle cx="704.8" cy="67.8" r="1.2" fill="white" opacity="0.15"/>
  <circle cx="750.7" cy="68.8" r="1.1" fill="white" opacity="0.14"/>
  <circle cx="794.9" cy="70.8" r="1.1" fill="white" opacity="0.13"/>
  <circle cx="839.9" cy="67.4" r="1.0" fill="white" opacity="0.11"/>
  <circle cx="889.8" cy="67.9" r="0.9" fill="white" opacity="0.09"/>
  <circle cx="936.3" cy="67.6" r="0.8" fill="white" opacity="0.07"/>
  <circle cx="981.4" cy="63.4" r="0.7" fill="white" opacity="0.05"/>
  <circle cx="1023.8" cy="65.3" r="0.7" fill="white" opacity="0.05"/>
  <circle cx="50.6" cy="109.9" r="1.3" fill="white" opacity="0.17"/>
  <circle cx="97.1" cy="110.3" r="1.3" fill="white" opacity="0.19"/>
  <circle cx="147.7" cy="111.0" r="1.4" fill="white" opacity="0.20"/>
  <circle cx="191.8" cy="109.7" r="1.4" fill="white" opacity="0.21"/>
  <circle cx="237.3" cy="115.5" r="1.5" fill="white" opacity="0.22"/>
  <circle cx="286.6" cy="112.9" r="1.5" fill="white" opacity="0.22"/>
  <circle cx="329.1" cy="113.9" r="1.5" fill="white" opacity="0.22"/>
  <circle cx="375.3" cy="111.1" r="1.5" fill="white" opacity="0.22"/>
  <circle cx="428.2" cy="113.2" r="1.5" fill="white" opacity="0.22"/>
  <circle cx="471.0" cy="113.5" r="1.5" fill="white" opacity="0.22"/>
  <circle cx="519.6" cy="114.2" r="1.5" fill="white" opacity="0.22"/>
  <circle cx="561.0" cy="108.3" r="1.4" fill="white" opacity="0.21"/>
  <circle cx="608.0" cy="110.2" r="1.4" fill="white" opacity="0.20"/>
  <circle cx="653.4" cy="115.6" r="1.4" fill="white" opacity="0.19"/>
  <circle cx="705.0" cy="110.6" r="1.3" fill="white" opacity="0.17"/>
  <circle cx="749.5" cy="111.2" r="1.2" fill="white" opacity="0.16"/>
  <circle cx="797.9" cy="111.7" r="1.1" fill="white" opacity="0.14"/>
  <circle cx="839.0" cy="110.0" r="1.1" fill="white" opacity="0.13"/>
  <circle cx="887.6" cy="110.1" r="1.0" fill="white" opacity="0.11"/>
  <circle cx="934.1" cy="115.2" r="0.9" fill="white" opacity="0.09"/>
  <circle cx="978.9" cy="109.8" r="0.8" fill="white" opacity="0.07"/>
  <circle cx="1030.0" cy="112.1" r="0.7" fill="white" opacity="0.05"/>
  <circle cx="50.7" cy="153.5" r="1.4" fill="white" opacity="0.19"/>
  <circle cx="97.2" cy="158.1" r="1.5" fill="white" opacity="0.21"/>
  <circle cx="148.9" cy="156.5" r="1.5" fill="white" opacity="0.22"/>
  <circle cx="189.4" cy="156.1" r="1.6" fill="white" opacity="0.23"/>
  <circle cx="243.1" cy="157.3" r="1.6" fill="white" opacity="0.24"/>
  <circle cx="289.2" cy="160.0" r="1.6" fill="white" opacity="0.25"/>
  <circle cx="327.8" cy="158.8" r="1.7" fill="white" opacity="0.25"/>
  <circle cx="379.5" cy="157.4" r="1.7" fill="white" opacity="0.25"/>
  <circle cx="422.4" cy="158.2" r="1.7" fill="white" opacity="0.25"/>
  <circle cx="467.5" cy="156.6" r="1.6" fill="white" opacity="0.25"/>
  <circle cx="516.5" cy="160.7" r="1.6" fill="white" opacity="0.24"/>
  <circle cx="566.1" cy="155.2" r="1.6" fill="white" opacity="0.23"/>
  <circle cx="609.4" cy="154.5" r="1.5" fill="white" opacity="0.22"/>
  <circle cx="659.0" cy="160.0" r="1.5" fill="white" opacity="0.21"/>
  <circle cx="700.4" cy="158.2" r="1.4" fill="white" opacity="0.20"/>
  <circle cx="749.2" cy="154.3" r="1.3" fill="white" opacity="0.18"/>
  <circle cx="796.7" cy="157.4" r="1.3" fill="white" opacity="0.16"/>
  <circle cx="843.1" cy="157.3" r="1.2" fill="white" opacity="0.15"/>
  <circle cx="883.1" cy="155.7" r="1.1" fill="white" opacity="0.13"/>
  <circle cx="929.6" cy="160.5" r="1.0" fill="white" opacity="0.11"/>
  <circle cx="982.7" cy="159.7" r="0.9" fill="white" opacity="0.09"/>
  <circle cx="1024.5" cy="153.5" r="0.8" fill="white" opacity="0.07"/>
  <circle cx="57.0" cy="205.7" r="1.5" fill="white" opacity="0.22"/>
  <circle cx="97.0" cy="202.0" r="1.6" fill="white" opacity="0.23"/>
  <circle cx="143.1" cy="204.2" r="1.6" fill="white" opacity="0.25"/>
  <circle cx="195.0" cy="199.1" r="1.7" fill="white" opacity="0.26"/>
  <circle cx="238.9" cy="202.5" r="1.7" fill="white" opacity="0.27"/>
  <circle cx="283.5" cy="205.1" r="1.8" fill="white" opacity="0.27"/>
  <circle cx="331.1" cy="199.8" r="1.8" fill="white" opacity="0.27"/>
  <circle cx="378.3" cy="204.0" r="1.8" fill="white" opacity="0.28"/>
  <circle cx="421.9" cy="200.6" r="1.8" fill="white" opacity="0.27"/>
  <circle cx="474.5" cy="203.3" r="1.8" fill="white" opacity="0.27"/>
  <circle cx="516.4" cy="202.3" r="1.7" fill="white" opacity="0.27"/>
  <circle cx="560.1" cy="199.9" r="1.7" fill="white" opacity="0.26"/>
  <circle cx="608.1" cy="202.8" r="1.6" fill="white" opacity="0.25"/>
  <circle cx="653.6" cy="199.9" r="1.6" fill="white" opacity="0.23"/>
  <circle cx="698.6" cy="203.2" r="1.5" fill="white" opacity="0.22"/>
  <circle cx="746.1" cy="205.4" r="1.4" fill="white" opacity="0.20"/>
  <circle cx="797.4" cy="198.7" r="1.3" fill="white" opacity="0.18"/>
  <circle cx="838.8" cy="203.5" r="1.3" fill="white" opacity="0.17"/>
  <circle cx="884.9" cy="199.2" r="1.2" fill="white" opacity="0.15"/>
  <circle cx="936.9" cy="202.7" r="1.1" fill="white" opacity="0.13"/>
  <circle cx="979.5" cy="204.4" r="1.0" fill="white" opacity="0.11"/>
  <circle cx="1028.5" cy="199.6" r="0.9" fill="white" opacity="0.08"/>
  <circle cx="50.8" cy="246.6" r="1.6" fill="white" opacity="0.24"/>
  <circle cx="99.7" cy="246.9" r="1.7" fill="white" opacity="0.25"/>
  <circle cx="148.4" cy="248.5" r="1.8" fill="white" opacity="0.27"/>
  <circle cx="196.7" cy="243.9" r="1.8" fill="white" opacity="0.28"/>
  <circle cx="238.4" cy="245.9" r="1.8" fill="white" opacity="0.29"/>
  <circle cx="288.3" cy="245.1" r="1.9" fill="white" opacity="0.30"/>
  <circle cx="329.2" cy="246.7" r="1.9" fill="white" opacity="0.30"/>
  <circle cx="376.2" cy="245.1" r="1.9" fill="#FF5898" opacity="0.42"/>
  <circle cx="423.8" cy="250.0" r="1.9" fill="#FF5898" opacity="0.42"/>
  <circle cx="467.0" cy="251.1" r="1.9" fill="white" opacity="0.30"/>
  <circle cx="519.5" cy="250.9" r="1.9" fill="white" opacity="0.29"/>
  <circle cx="566.6" cy="249.9" r="1.8" fill="white" opacity="0.28"/>
  <circle cx="606.8" cy="247.0" r="1.8" fill="white" opacity="0.27"/>
  <circle cx="653.4" cy="246.4" r="1.7" fill="white" opacity="0.26"/>
  <circle cx="698.5" cy="246.2" r="1.6" fill="white" opacity="0.24"/>
  <circle cx="752.2" cy="245.3" r="1.5" fill="white" opacity="0.22"/>
  <circle cx="796.8" cy="246.8" r="1.4" fill="white" opacity="0.20"/>
  <circle cx="840.2" cy="250.8" r="1.4" fill="white" opacity="0.19"/>
  <circle cx="891.1" cy="247.6" r="1.2" fill="white" opacity="0.16"/>
  <circle cx="935.2" cy="244.4" r="1.1" fill="white" opacity="0.14"/>
  <circle cx="978.1" cy="250.9" r="1.1" fill="white" opacity="0.12"/>
  <circle cx="1026.6" cy="247.5" r="0.9" fill="white" opacity="0.10"/>
  <circle cx="56.0" cy="288.6" r="1.7" fill="white" opacity="0.26"/>
  <circle cx="101.0" cy="292.2" r="1.8" fill="white" opacity="0.28"/>
  <circle cx="149.4" cy="289.4" r="1.9" fill="white" opacity="0.29"/>
  <circle cx="196.5" cy="288.8" r="1.9" fill="white" opacity="0.30"/>
  <circle cx="239.9" cy="293.6" r="2.0" fill="white" opacity="0.32"/>
  <circle cx="282.4" cy="295.3" r="2.0" fill="white" opacity="0.32"/>
  <circle cx="332.5" cy="293.1" r="2.0" fill="white" opacity="0.33"/>
  <circle cx="378.7" cy="292.4" r="2.0" fill="#FF5898" opacity="0.46"/>
  <circle cx="421.9" cy="293.9" r="2.0" fill="white" opacity="0.33"/>
  <circle cx="469.7" cy="293.6" r="2.0" fill="white" opacity="0.32"/>
  <circle cx="515.4" cy="294.2" r="2.0" fill="white" opacity="0.32"/>
  <circle cx="562.8" cy="296.2" r="1.9" fill="#FF5898" opacity="0.43"/>
  <circle cx="606.0" cy="289.9" r="1.9" fill="white" opacity="0.29"/>
  <circle cx="653.8" cy="295.7" r="1.8" fill="white" opacity="0.28"/>
  <circle cx="705.0" cy="295.2" r="1.7" fill="white" opacity="0.26"/>
  <circle cx="747.2" cy="289.4" r="1.6" fill="white" opacity="0.24"/>
  <circle cx="797.2" cy="293.8" r="1.5" fill="white" opacity="0.22"/>
  <circle cx="841.8" cy="296.1" r="1.4" fill="white" opacity="0.20"/>
  <circle cx="888.4" cy="288.2" r="1.3" fill="white" opacity="0.18"/>
  <circle cx="936.0" cy="290.6" r="1.2" fill="white" opacity="0.16"/>
  <circle cx="981.0" cy="295.7" r="1.1" fill="white" opacity="0.14"/>
  <circle cx="1023.1" cy="289.1" r="1.0" fill="white" opacity="0.12"/>
  <circle cx="50.9" cy="337.6" r="1.8" fill="white" opacity="0.28"/>
  <circle cx="98.5" cy="338.1" r="1.9" fill="white" opacity="0.30"/>
  <circle cx="148.3" cy="334.9" r="2.0" fill="#FF5898" opacity="0.44"/>
  <circle cx="191.0" cy="337.1" r="2.0" fill="#FF5898" opacity="0.46"/>
  <circle cx="241.9" cy="334.0" r="2.1" fill="white" opacity="0.34"/>
  <circle cx="283.6" cy="333.3" r="2.1" fill="#FF5898" opacity="0.48"/>
  <circle cx="332.8" cy="335.3" r="2.1" fill="#FF5898" opacity="0.49"/>
  <circle cx="378.4" cy="336.6" r="2.2" fill="white" opacity="0.35"/>
  <circle cx="420.9" cy="340.3" r="2.2" fill="#FF5898" opacity="0.50"/>
  <circle cx="470.9" cy="339.9" r="2.1" fill="#FF5898" opacity="0.49"/>
  <circle cx="514.0" cy="334.2" r="2.1" fill="white" opacity="0.34"/>
  <circle cx="566.3" cy="339.6" r="2.0" fill="#FF5898" opacity="0.46"/>
  <circle cx="612.6" cy="334.9" r="2.0" fill="white" opacity="0.31"/>
  <circle cx="652.5" cy="339.5" r="1.9" fill="white" opacity="0.30"/>
  <circle cx="705.1" cy="336.5" r="1.8" fill="white" opacity="0.28"/>
  <circle cx="749.3" cy="334.5" r="1.7" fill="white" opacity="0.26"/>
  <circle cx="798.0" cy="340.1" r="1.6" fill="white" opacity="0.24"/>
  <circle cx="844.7" cy="339.7" r="1.5" fill="white" opacity="0.22"/>
  <circle cx="890.2" cy="333.4" r="1.4" fill="white" opacity="0.19"/>
  <circle cx="935.3" cy="335.9" r="1.3" fill="white" opacity="0.17"/>
  <circle cx="983.2" cy="339.6" r="1.2" fill="white" opacity="0.15"/>
  <circle cx="1028.9" cy="339.7" r="1.1" fill="white" opacity="0.13"/>
  <circle cx="52.1" cy="384.6" r="1.9" fill="white" opacity="0.30"/>
  <circle cx="97.2" cy="385.2" r="2.0" fill="#FF5898" opacity="0.44"/>
  <circle cx="144.4" cy="384.8" r="2.1" fill="white" opacity="0.33"/>
  <circle cx="191.3" cy="384.6" r="2.1" fill="white" opacity="0.35"/>
  <circle cx="235.3" cy="379.8" r="2.2" fill="white" opacity="0.36"/>
  <circle cx="288.3" cy="386.0" r="2.3" fill="white" opacity="0.37"/>
  <circle cx="332.8" cy="381.5" r="2.3" fill="#FF5898" opacity="0.53"/>
  <circle cx="378.3" cy="385.8" r="2.3" fill="white" opacity="0.38"/>
  <circle cx="428.0" cy="379.7" r="2.3" fill="#FF5898" opacity="0.53"/>
  <circle cx="468.7" cy="379.1" r="2.2" fill="white" opacity="0.37"/>
  <circle cx="518.7" cy="380.8" r="2.2" fill="#FF5898" opacity="0.51"/>
  <circle cx="563.2" cy="381.3" r="2.1" fill="#FF5898" opacity="0.49"/>
  <circle cx="607.5" cy="383.9" r="2.1" fill="white" opacity="0.34"/>
  <circle cx="659.1" cy="382.6" r="2.0" fill="#FF5898" opacity="0.44"/>
  <circle cx="703.9" cy="383.6" r="1.9" fill="white" opacity="0.30"/>
  <circle cx="747.2" cy="378.8" r="1.8" fill="white" opacity="0.28"/>
  <circle cx="795.9" cy="380.9" r="1.7" fill="white" opacity="0.25"/>
  <circle cx="839.4" cy="385.0" r="1.6" fill="white" opacity="0.23"/>
  <circle cx="888.9" cy="380.7" r="1.5" fill="white" opacity="0.21"/>
  <circle cx="931.9" cy="381.5" r="1.4" fill="white" opacity="0.19"/>
  <circle cx="978.9" cy="380.6" r="1.2" fill="white" opacity="0.16"/>
  <circle cx="1023.0" cy="381.6" r="1.1" fill="white" opacity="0.14"/>
  <circle cx="57.5" cy="428.7" r="2.0" fill="#FF5898" opacity="0.44"/>
  <circle cx="101.2" cy="425.7" r="2.1" fill="white" opacity="0.33"/>
  <circle cx="142.6" cy="425.6" r="2.1" fill="white" opacity="0.35"/>
  <circle cx="193.5" cy="428.5" r="2.2" fill="white" opacity="0.37"/>
  <circle cx="238.7" cy="425.0" r="2.3" fill="white" opacity="0.38"/>
  <circle cx="288.6" cy="429.7" r="2.4" fill="white" opacity="0.40"/>
  <circle cx="328.4" cy="427.4" r="2.4" fill="#FF5898" opacity="0.57"/>
  <circle cx="376.7" cy="429.8" r="2.4" fill="#FF5898" opacity="0.57"/>
  <circle cx="425.7" cy="425.1" r="2.4" fill="white" opacity="0.40"/>
  <circle cx="466.8" cy="425.3" r="2.4" fill="white" opacity="0.40"/>
  <circle cx="519.7" cy="423.9" r="2.3" fill="white" opacity="0.38"/>
  <circle cx="564.2" cy="424.9" r="2.2" fill="#FF5898" opacity="0.52"/>
  <circle cx="609.4" cy="425.2" r="2.2" fill="#FF5898" opacity="0.49"/>
  <circle cx="651.8" cy="429.3" r="2.1" fill="#FF5898" opacity="0.47"/>
  <circle cx="698.9" cy="426.7" r="2.0" fill="white" opacity="0.32"/>
  <circle cx="751.9" cy="427.4" r="1.9" fill="white" opacity="0.29"/>
  <circle cx="791.0" cy="425.3" r="1.8" fill="white" opacity="0.27"/>
  <circle cx="843.6" cy="426.9" r="1.6" fill="white" opacity="0.24"/>
  <circle cx="889.6" cy="428.6" r="1.5" fill="white" opacity="0.22"/>
  <circle cx="937.3" cy="428.1" r="1.4" fill="white" opacity="0.20"/>
  <circle cx="983.3" cy="430.4" r="1.3" fill="white" opacity="0.17"/>
  <circle cx="1026.9" cy="429.1" r="1.2" fill="white" opacity="0.15"/>
  <circle cx="54.0" cy="475.0" r="2.0" fill="white" opacity="0.33"/>
  <circle cx="103.5" cy="474.3" r="2.2" fill="white" opacity="0.35"/>
  <circle cx="144.6" cy="470.3" r="2.2" fill="#FF5898" opacity="0.52"/>
  <circle cx="195.0" cy="472.5" r="2.3" fill="#FF5898" opacity="0.55"/>
  <circle cx="237.3" cy="469.0" r="2.4" fill="white" opacity="0.41"/>
  <circle cx="283.6" cy="470.9" r="2.5" fill="white" opacity="0.42"/>
  <circle cx="328.8" cy="470.2" r="2.5" fill="#FF5898" opacity="0.60"/>
  <circle cx="379.7" cy="468.8" r="2.5" fill="white" opacity="0.43"/>
  <circle cx="424.6" cy="471.7" r="2.5" fill="white" opacity="0.43"/>
  <circle cx="469.9" cy="475.6" r="2.5" fill="#FF5898" opacity="0.59"/>
  <circle cx="518.4" cy="475.2" r="2.4" fill="#FF5898" opacity="0.57"/>
  <circle cx="562.2" cy="468.4" r="2.3" fill="white" opacity="0.39"/>
  <circle cx="611.5" cy="475.2" r="2.2" fill="#FF5898" opacity="0.52"/>
  <circle cx="655.1" cy="474.3" r="2.2" fill="white" opacity="0.35"/>
  <circle cx="702.8" cy="470.1" r="2.0" fill="white" opacity="0.33"/>
  <circle cx="747.8" cy="468.6" r="1.9" fill="white" opacity="0.31"/>
  <circle cx="796.0" cy="471.6" r="1.8" fill="white" opacity="0.28"/>
  <circle cx="838.2" cy="472.1" r="1.7" fill="white" opacity="0.26"/>
  <circle cx="884.2" cy="473.3" r="1.6" fill="white" opacity="0.23"/>
  <circle cx="929.6" cy="471.5" r="1.5" fill="white" opacity="0.21"/>
  <circle cx="980.2" cy="468.6" r="1.3" fill="white" opacity="0.18"/>
  <circle cx="1027.1" cy="469.4" r="1.2" fill="white" opacity="0.16"/>
  <circle cx="53.7" cy="513.8" r="2.1" fill="white" opacity="0.34"/>
  <circle cx="98.0" cy="516.0" r="2.2" fill="#FF5898" opacity="0.51"/>
  <circle cx="145.6" cy="519.4" r="2.3" fill="#FF5898" opacity="0.54"/>
  <circle cx="190.9" cy="514.0" r="2.4" fill="white" opacity="0.41"/>
  <circle cx="239.5" cy="521.4" r="2.5" fill="white" opacity="0.43"/>
  <circle cx="286.6" cy="519.6" r="2.6" fill="#FF5898" opacity="0.62"/>
  <circle cx="333.7" cy="521.0" r="2.7" fill="white" opacity="0.46"/>
  <circle cx="374.2" cy="514.6" r="2.7" fill="white" opacity="0.46"/>
  <circle cx="425.6" cy="517.9" r="2.6" fill="white" opacity="0.46"/>
  <circle cx="472.2" cy="519.5" r="2.6" fill="white" opacity="0.44"/>
  <circle cx="517.7" cy="519.4" r="2.5" fill="white" opacity="0.43"/>
  <circle cx="565.7" cy="521.1" r="2.4" fill="white" opacity="0.41"/>
  <circle cx="605.6" cy="515.9" r="2.3" fill="#FF5898" opacity="0.55"/>
  <circle cx="659.4" cy="516.5" r="2.2" fill="#FF5898" opacity="0.51"/>
  <circle cx="698.6" cy="518.9" r="2.1" fill="#FF5898" opacity="0.48"/>
  <circle cx="745.1" cy="519.6" r="2.0" fill="#FF5898" opacity="0.45"/>
  <circle cx="795.4" cy="514.3" r="1.9" fill="white" opacity="0.29"/>
  <circle cx="844.7" cy="519.6" r="1.7" fill="white" opacity="0.27"/>
  <circle cx="885.9" cy="516.8" r="1.6" fill="white" opacity="0.24"/>
  <circle cx="932.4" cy="517.4" r="1.5" fill="white" opacity="0.22"/>
  <circle cx="978.4" cy="520.2" r="1.4" fill="white" opacity="0.19"/>
  <circle cx="1028.6" cy="514.2" r="1.2" fill="white" opacity="0.16"/>
  <circle cx="57.7" cy="563.5" r="2.2" fill="#FF5898" opacity="0.50"/>
  <circle cx="101.9" cy="561.9" r="2.3" fill="#FF5898" opacity="0.53"/>
  <circle cx="150.3" cy="560.6" r="2.4" fill="#FF5898" opacity="0.56"/>
  <circle cx="193.2" cy="562.3" r="2.5" fill="white" opacity="0.42"/>
  <circle cx="241.0" cy="560.6" r="2.6" fill="#FF5898" opacity="0.63"/>
  <circle cx="288.1" cy="559.1" r="2.7" fill="#FF5898" opacity="0.65"/>
  <circle cx="329.7" cy="562.1" r="2.8" fill="#FF5898" opacity="0.67"/>
  <circle cx="377.0" cy="558.6" r="2.8" fill="#FF5898" opacity="0.68"/>
  <circle cx="421.7" cy="560.1" r="2.8" fill="#FF5898" opacity="0.67"/>
  <circle cx="469.3" cy="565.4" r="2.7" fill="#FF5898" opacity="0.65"/>
  <circle cx="515.1" cy="558.5" r="2.6" fill="#FF5898" opacity="0.62"/>
  <circle cx="559.8" cy="564.2" r="2.5" fill="white" opacity="0.43"/>
  <circle cx="611.5" cy="563.9" r="2.4" fill="#FF5898" opacity="0.56"/>
  <circle cx="655.6" cy="564.8" r="2.3" fill="white" opacity="0.38"/>
  <circle cx="699.8" cy="563.9" r="2.2" fill="white" opacity="0.35"/>
  <circle cx="748.9" cy="562.2" r="2.0" fill="white" opacity="0.33"/>
  <circle cx="794.0" cy="564.4" r="1.9" fill="white" opacity="0.30"/>
  <circle cx="842.5" cy="560.6" r="1.8" fill="white" opacity="0.27"/>
  <circle cx="885.2" cy="559.4" r="1.7" fill="white" opacity="0.25"/>
  <circle cx="931.0" cy="559.4" r="1.5" fill="white" opacity="0.22"/>
  <circle cx="980.0" cy="564.5" r="1.4" fill="white" opacity="0.20"/>
  <circle cx="1023.5" cy="560.1" r="1.3" fill="white" opacity="0.17"/>
  <circle cx="53.9" cy="609.2" r="2.2" fill="#FF5898" opacity="0.50"/>
  <circle cx="100.5" cy="605.7" r="2.3" fill="white" opacity="0.38"/>
  <circle cx="144.1" cy="605.3" r="2.4" fill="white" opacity="0.41"/>
  <circle cx="189.0" cy="607.7" r="2.5" fill="white" opacity="0.43"/>
  <circle cx="242.9" cy="607.9" r="2.7" fill="#FF5898" opacity="0.65"/>
  <circle cx="282.4" cy="610.4" r="2.8" fill="white" opacity="0.48"/>
  <circle cx="334.7" cy="608.0" r="2.9" fill="white" opacity="0.50"/>
  <circle cx="377.5" cy="604.9" r="2.9" fill="white" opacity="0.51"/>
  <circle cx="427.8" cy="607.3" r="2.9" fill="#FF5898" opacity="0.70"/>
  <circle cx="469.8" cy="604.0" r="2.8" fill="#FF5898" opacity="0.68"/>
  <circle cx="513.3" cy="604.6" r="2.7" fill="#FF5898" opacity="0.65"/>
  <circle cx="561.6" cy="611.4" r="2.6" fill="white" opacity="0.44"/>
  <circle cx="611.5" cy="608.3" r="2.4" fill="#FF5898" opacity="0.57"/>
  <circle cx="653.5" cy="607.6" r="2.3" fill="white" opacity="0.39"/>
  <circle cx="701.5" cy="610.3" r="2.2" fill="#FF5898" opacity="0.50"/>
  <circle cx="746.7" cy="608.4" r="2.1" fill="#FF5898" opacity="0.47"/>
  <circle cx="796.5" cy="611.0" r="1.9" fill="white" opacity="0.31"/>
  <circle cx="838.5" cy="608.7" r="1.8" fill="white" opacity="0.28"/>
  <circle cx="884.4" cy="604.8" r="1.7" fill="white" opacity="0.25"/>
  <circle cx="930.0" cy="603.5" r="1.6" fill="white" opacity="0.23"/>
  <circle cx="979.3" cy="608.2" r="1.4" fill="white" opacity="0.20"/>
  <circle cx="1024.3" cy="605.3" r="1.3" fill="white" opacity="0.17"/>
  <circle cx="55.7" cy="654.1" r="2.2" fill="white" opacity="0.36"/>
  <circle cx="101.8" cy="655.9" r="2.3" fill="#FF5898" opacity="0.55"/>
  <circle cx="147.6" cy="653.8" r="2.5" fill="#FF5898" opacity="0.58"/>
  <circle cx="192.3" cy="652.8" r="2.6" fill="#FF5898" opacity="0.62"/>
  <circle cx="242.4" cy="655.1" r="2.7" fill="white" opacity="0.47"/>
  <circle cx="282.8" cy="650.9" r="2.8" fill="#FF5898" opacity="0.69"/>
  <circle cx="332.3" cy="650.8" r="3.0" fill="white" opacity="0.52"/>
  <circle cx="379.5" cy="654.1" r="3.0" fill="#FF5898" opacity="0.75"/>
  <circle cx="424.3" cy="652.4" r="3.0" fill="white" opacity="0.52"/>
  <circle cx="466.9" cy="651.9" r="2.8" fill="white" opacity="0.50"/>
  <circle cx="514.9" cy="649.2" r="2.7" fill="#FF5898" opacity="0.66"/>
  <circle cx="565.8" cy="653.1" r="2.6" fill="#FF5898" opacity="0.62"/>
  <circle cx="613.4" cy="653.9" r="2.4" fill="white" opacity="0.41"/>
  <circle cx="652.0" cy="654.5" r="2.3" fill="white" opacity="0.39"/>
  <circle cx="703.2" cy="655.8" r="2.2" fill="white" opacity="0.36"/>
  <circle cx="749.0" cy="653.6" r="2.1" fill="white" opacity="0.34"/>
  <circle cx="791.3" cy="651.3" r="2.0" fill="white" opacity="0.31"/>
  <circle cx="842.2" cy="655.3" r="1.8" fill="white" opacity="0.28"/>
  <circle cx="885.8" cy="654.0" r="1.7" fill="white" opacity="0.26"/>
  <circle cx="931.7" cy="656.0" r="1.6" fill="white" opacity="0.23"/>
  <circle cx="982.2" cy="652.9" r="1.4" fill="white" opacity="0.20"/>
  <circle cx="1025.6" cy="651.0" r="1.3" fill="white" opacity="0.18"/>
  <circle cx="52.6" cy="701.3" r="2.2" fill="white" opacity="0.36"/>
  <circle cx="100.4" cy="701.4" r="2.3" fill="#FF5898" opacity="0.54"/>
  <circle cx="146.9" cy="696.8" r="2.5" fill="white" opacity="0.42"/>
  <circle cx="191.8" cy="699.6" r="2.6" fill="#FF5898" opacity="0.62"/>
  <circle cx="241.2" cy="695.1" r="2.7" fill="white" opacity="0.47"/>
  <circle cx="288.8" cy="697.0" r="2.8" fill="#FF5898" opacity="0.70"/>
  <circle cx="328.7" cy="701.3" r="2.9" fill="#FF5898" opacity="0.72"/>
  <circle cx="375.9" cy="694.8" r="3.0" fill="#FF5898" opacity="0.75"/>
  <circle cx="424.7" cy="694.3" r="3.0" fill="#FF5898" opacity="0.73"/>
  <circle cx="473.9" cy="697.2" r="2.8" fill="white" opacity="0.49"/>
  <circle cx="519.5" cy="697.5" r="2.7" fill="#FF5898" opacity="0.65"/>
  <circle cx="563.2" cy="695.7" r="2.6" fill="#FF5898" opacity="0.62"/>
  <circle cx="613.3" cy="695.5" r="2.4" fill="#FF5898" opacity="0.58"/>
  <circle cx="654.8" cy="700.9" r="2.3" fill="white" opacity="0.39"/>
  <circle cx="705.0" cy="700.4" r="2.2" fill="white" opacity="0.36"/>
  <circle cx="750.6" cy="696.8" r="2.1" fill="#FF5898" opacity="0.47"/>
  <circle cx="794.6" cy="700.1" r="1.9" fill="white" opacity="0.31"/>
  <circle cx="839.2" cy="698.2" r="1.8" fill="white" opacity="0.28"/>
  <circle cx="891.1" cy="697.4" r="1.7" fill="white" opacity="0.25"/>
  <circle cx="930.6" cy="697.8" r="1.6" fill="white" opacity="0.23"/>
  <circle cx="978.5" cy="697.9" r="1.4" fill="white" opacity="0.20"/>
  <circle cx="1026.3" cy="697.2" r="1.3" fill="white" opacity="0.17"/>
  <circle cx="52.6" cy="740.1" r="2.2" fill="#FF5898" opacity="0.50"/>
  <circle cx="100.9" cy="740.4" r="2.3" fill="#FF5898" opacity="0.54"/>
  <circle cx="142.9" cy="744.5" r="2.4" fill="#FF5898" opacity="0.57"/>
  <circle cx="195.3" cy="741.6" r="2.6" fill="#FF5898" opacity="0.61"/>
  <circle cx="241.7" cy="746.4" r="2.7" fill="white" opacity="0.46"/>
  <circle cx="281.7" cy="742.6" r="2.8" fill="#FF5898" opacity="0.67"/>
  <circle cx="334.7" cy="745.5" r="2.9" fill="white" opacity="0.50"/>
  <circle cx="378.2" cy="742.2" r="2.9" fill="#FF5898" opacity="0.72"/>
  <circle cx="423.6" cy="743.8" r="2.9" fill="white" opacity="0.50"/>
  <circle cx="470.3" cy="746.3" r="2.8" fill="white" opacity="0.48"/>
  <circle cx="518.4" cy="743.8" r="2.7" fill="#FF5898" opacity="0.64"/>
  <circle cx="566.0" cy="745.4" r="2.5" fill="white" opacity="0.43"/>
  <circle cx="608.0" cy="744.3" r="2.4" fill="#FF5898" opacity="0.58"/>
  <circle cx="658.7" cy="738.8" r="2.3" fill="white" opacity="0.38"/>
  <circle cx="703.0" cy="745.9" r="2.2" fill="#FF5898" opacity="0.50"/>
  <circle cx="750.3" cy="742.0" r="2.0" fill="white" opacity="0.33"/>
  <circle cx="795.6" cy="745.5" r="1.9" fill="white" opacity="0.31"/>
  <circle cx="842.4" cy="745.8" r="1.8" fill="white" opacity="0.28"/>
  <circle cx="883.5" cy="744.9" r="1.7" fill="white" opacity="0.25"/>
  <circle cx="931.8" cy="741.6" r="1.6" fill="white" opacity="0.23"/>
  <circle cx="976.9" cy="742.8" r="1.4" fill="white" opacity="0.20"/>
  <circle cx="1026.5" cy="744.9" r="1.3" fill="white" opacity="0.17"/>
  <circle cx="51.4" cy="784.2" r="2.1" fill="#FF5898" opacity="0.49"/>
  <circle cx="101.2" cy="785.5" r="2.3" fill="#FF5898" opacity="0.53"/>
  <circle cx="143.7" cy="787.3" r="2.4" fill="white" opacity="0.40"/>
  <circle cx="190.9" cy="783.7" r="2.5" fill="#FF5898" opacity="0.59"/>
  <circle cx="242.4" cy="789.0" r="2.6" fill="white" opacity="0.45"/>
  <circle cx="285.0" cy="786.4" r="2.7" fill="#FF5898" opacity="0.65"/>
  <circle cx="332.8" cy="787.0" r="2.8" fill="white" opacity="0.48"/>
  <circle cx="380.8" cy="785.2" r="2.8" fill="white" opacity="0.49"/>
  <circle cx="424.2" cy="785.5" r="2.8" fill="#FF5898" opacity="0.67"/>
  <circle cx="471.2" cy="791.5" r="2.7" fill="white" opacity="0.46"/>
  <circle cx="520.7" cy="788.9" r="2.6" fill="white" opacity="0.44"/>
  <circle cx="563.7" cy="789.1" r="2.5" fill="#FF5898" opacity="0.59"/>
  <circle cx="605.8" cy="788.4" r="2.4" fill="white" opacity="0.40"/>
  <circle cx="658.9" cy="785.9" r="2.3" fill="#FF5898" opacity="0.53"/>
  <circle cx="702.9" cy="786.4" r="2.1" fill="#FF5898" opacity="0.49"/>
  <circle cx="749.3" cy="789.0" r="2.0" fill="#FF5898" opacity="0.46"/>
  <circle cx="795.8" cy="790.3" r="1.9" fill="white" opacity="0.30"/>
  <circle cx="841.9" cy="790.8" r="1.8" fill="white" opacity="0.27"/>
  <circle cx="888.3" cy="786.1" r="1.6" fill="white" opacity="0.25"/>
  <circle cx="933.0" cy="788.2" r="1.5" fill="white" opacity="0.22"/>
  <circle cx="981.6" cy="784.3" r="1.4" fill="white" opacity="0.20"/>
  <circle cx="1024.4" cy="789.6" r="1.3" fill="white" opacity="0.17"/>
  <circle cx="51.4" cy="829.7" r="2.1" fill="white" opacity="0.34"/>
  <circle cx="104.1" cy="832.9" r="2.2" fill="#FF5898" opacity="0.51"/>
  <circle cx="149.2" cy="830.7" r="2.3" fill="#FF5898" opacity="0.55"/>
  <circle cx="192.7" cy="835.1" r="2.4" fill="#FF5898" opacity="0.57"/>
  <circle cx="237.9" cy="829.6" r="2.5" fill="#FF5898" opacity="0.60"/>
  <circle cx="282.6" cy="836.4" r="2.6" fill="#FF5898" opacity="0.62"/>
  <circle cx="333.5" cy="836.5" r="2.6" fill="#FF5898" opacity="0.63"/>
  <circle cx="380.4" cy="831.6" r="2.7" fill="#FF5898" opacity="0.64"/>
  <circle cx="420.4" cy="832.9" r="2.6" fill="white" opacity="0.46"/>
  <circle cx="472.0" cy="834.0" r="2.6" fill="#FF5898" opacity="0.62"/>
  <circle cx="519.4" cy="836.2" r="2.5" fill="white" opacity="0.43"/>
  <circle cx="561.0" cy="828.8" r="2.4" fill="#FF5898" opacity="0.58"/>
  <circle cx="609.9" cy="836.0" r="2.3" fill="white" opacity="0.39"/>
  <circle cx="652.2" cy="835.2" r="2.2" fill="#FF5898" opacity="0.51"/>
  <circle cx="700.4" cy="831.9" r="2.1" fill="white" opacity="0.34"/>
  <circle cx="751.9" cy="831.1" r="2.0" fill="white" opacity="0.32"/>
  <circle cx="791.3" cy="835.7" r="1.9" fill="white" opacity="0.29"/>
  <circle cx="837.9" cy="832.3" r="1.8" fill="white" opacity="0.27"/>
  <circle cx="888.5" cy="834.6" r="1.6" fill="white" opacity="0.24"/>
  <circle cx="937.0" cy="832.0" r="1.5" fill="white" opacity="0.21"/>
  <circle cx="981.7" cy="829.9" r="1.4" fill="white" opacity="0.19"/>
  <circle cx="1025.3" cy="829.4" r="1.3" fill="white" opacity="0.17"/>
  <circle cx="53.9" cy="876.9" r="2.0" fill="#FF5898" opacity="0.46"/>
  <circle cx="96.5" cy="876.6" r="2.1" fill="white" opacity="0.35"/>
  <circle cx="150.2" cy="880.5" r="2.2" fill="white" opacity="0.37"/>
  <circle cx="194.3" cy="878.0" r="2.3" fill="#FF5898" opacity="0.55"/>
  <circle cx="238.0" cy="876.9" r="2.4" fill="white" opacity="0.41"/>
  <circle cx="282.4" cy="880.5" r="2.5" fill="white" opacity="0.42"/>
  <circle cx="333.0" cy="878.8" r="2.5" fill="#FF5898" opacity="0.60"/>
  <circle cx="374.2" cy="880.0" r="2.5" fill="white" opacity="0.43"/>
  <circle cx="421.3" cy="878.2" r="2.5" fill="white" opacity="0.43"/>
  <circle cx="472.7" cy="875.3" r="2.5" fill="white" opacity="0.42"/>
  <circle cx="519.8" cy="876.3" r="2.4" fill="white" opacity="0.41"/>
  <circle cx="566.3" cy="873.7" r="2.3" fill="#FF5898" opacity="0.55"/>
  <circle cx="606.6" cy="874.7" r="2.3" fill="white" opacity="0.37"/>
  <circle cx="653.1" cy="879.0" r="2.1" fill="white" opacity="0.35"/>
  <circle cx="698.1" cy="880.0" r="2.0" fill="white" opacity="0.33"/>
  <circle cx="746.9" cy="875.1" r="1.9" fill="white" opacity="0.31"/>
  <circle cx="796.5" cy="877.9" r="1.8" fill="white" opacity="0.28"/>
  <circle cx="842.8" cy="877.5" r="1.7" fill="white" opacity="0.26"/>
  <circle cx="889.4" cy="877.8" r="1.6" fill="white" opacity="0.23"/>
  <circle cx="930.3" cy="877.7" r="1.5" fill="white" opacity="0.21"/>
  <circle cx="983.3" cy="874.0" r="1.3" fill="white" opacity="0.18"/>
  <circle cx="1028.3" cy="880.6" r="1.2" fill="white" opacity="0.16"/>
  <circle cx="54.2" cy="922.4" r="2.0" fill="#FF5898" opacity="0.44"/>
  <circle cx="96.8" cy="922.5" r="2.1" fill="white" opacity="0.33"/>
  <circle cx="148.1" cy="922.6" r="2.2" fill="#FF5898" opacity="0.50"/>
  <circle cx="189.4" cy="919.4" r="2.2" fill="#FF5898" opacity="0.52"/>
  <circle cx="235.7" cy="920.9" r="2.3" fill="#FF5898" opacity="0.54"/>
  <circle cx="285.8" cy="921.3" r="2.4" fill="#FF5898" opacity="0.56"/>
  <circle cx="332.0" cy="922.3" r="2.4" fill="#FF5898" opacity="0.57"/>
  <circle cx="374.8" cy="924.3" r="2.4" fill="#FF5898" opacity="0.57"/>
  <circle cx="425.5" cy="924.9" r="2.4" fill="#FF5898" opacity="0.56"/>
  <circle cx="468.3" cy="922.3" r="2.4" fill="white" opacity="0.40"/>
  <circle cx="515.6" cy="922.3" r="2.3" fill="white" opacity="0.39"/>
  <circle cx="559.9" cy="922.1" r="2.2" fill="#FF5898" opacity="0.52"/>
  <circle cx="608.4" cy="919.9" r="2.2" fill="#FF5898" opacity="0.50"/>
  <circle cx="652.3" cy="925.4" r="2.1" fill="white" opacity="0.34"/>
  <circle cx="698.8" cy="924.6" r="2.0" fill="#FF5898" opacity="0.44"/>
  <circle cx="748.7" cy="923.4" r="1.9" fill="white" opacity="0.29"/>
  <circle cx="795.1" cy="921.3" r="1.8" fill="white" opacity="0.27"/>
  <circle cx="837.8" cy="921.5" r="1.7" fill="white" opacity="0.25"/>
  <circle cx="888.5" cy="924.7" r="1.5" fill="white" opacity="0.22"/>
  <circle cx="936.4" cy="924.5" r="1.4" fill="white" opacity="0.20"/>
  <circle cx="983.5" cy="923.5" r="1.3" fill="white" opacity="0.17"/>
  <circle cx="1024.8" cy="923.3" r="1.2" fill="white" opacity="0.15"/>
  <circle cx="51.7" cy="969.0" r="1.9" fill="white" opacity="0.30"/>
  <circle cx="98.1" cy="964.6" r="2.0" fill="#FF5898" opacity="0.44"/>
  <circle cx="145.5" cy="969.8" r="2.1" fill="#FF5898" opacity="0.47"/>
  <circle cx="195.3" cy="970.5" r="2.1" fill="#FF5898" opacity="0.49"/>
  <circle cx="241.7" cy="968.6" r="2.2" fill="#FF5898" opacity="0.51"/>
  <circle cx="281.6" cy="971.2" r="2.2" fill="#FF5898" opacity="0.52"/>
  <circle cx="329.9" cy="965.2" r="2.3" fill="#FF5898" opacity="0.53"/>
  <circle cx="376.5" cy="966.5" r="2.3" fill="white" opacity="0.38"/>
  <circle cx="427.2" cy="968.3" r="2.3" fill="white" opacity="0.38"/>
  <circle cx="467.7" cy="968.8" r="2.2" fill="white" opacity="0.37"/>
  <circle cx="518.8" cy="965.5" r="2.2" fill="white" opacity="0.36"/>
  <circle cx="561.9" cy="966.7" r="2.1" fill="#FF5898" opacity="0.49"/>
  <circle cx="611.6" cy="968.3" r="2.1" fill="white" opacity="0.33"/>
  <circle cx="652.1" cy="965.0" r="2.0" fill="#FF5898" opacity="0.45"/>
  <circle cx="703.4" cy="965.9" r="1.9" fill="white" opacity="0.30"/>
  <circle cx="749.6" cy="967.6" r="1.8" fill="white" opacity="0.28"/>
  <circle cx="794.1" cy="965.9" r="1.7" fill="white" opacity="0.26"/>
  <circle cx="842.9" cy="964.7" r="1.6" fill="white" opacity="0.23"/>
  <circle cx="886.6" cy="966.0" r="1.5" fill="white" opacity="0.21"/>
  <circle cx="934.9" cy="967.6" r="1.4" fill="white" opacity="0.19"/>
  <circle cx="981.1" cy="964.1" r="1.2" fill="white" opacity="0.16"/>
  <circle cx="1025.2" cy="968.5" r="1.1" fill="white" opacity="0.14"/>
  <circle cx="50.1" cy="1011.2" r="1.8" fill="white" opacity="0.28"/>
  <circle cx="98.0" cy="1009.9" r="1.9" fill="white" opacity="0.30"/>
  <circle cx="144.6" cy="1011.4" r="2.0" fill="white" opacity="0.31"/>
  <circle cx="194.8" cy="1010.2" r="2.0" fill="white" opacity="0.33"/>
  <circle cx="240.8" cy="1012.8" r="2.1" fill="#FF5898" opacity="0.47"/>
  <circle cx="287.9" cy="1009.4" r="2.1" fill="#FF5898" opacity="0.49"/>
  <circle cx="328.1" cy="1008.9" r="2.2" fill="#FF5898" opacity="0.50"/>
  <circle cx="380.9" cy="1013.4" r="2.2" fill="#FF5898" opacity="0.50"/>
  <circle cx="426.0" cy="1012.1" r="2.2" fill="white" opacity="0.35"/>
  <circle cx="466.7" cy="1011.4" r="2.1" fill="#FF5898" opacity="0.49"/>
  <circle cx="517.8" cy="1015.4" r="2.1" fill="#FF5898" opacity="0.47"/>
  <circle cx="559.8" cy="1015.5" r="2.0" fill="white" opacity="0.33"/>
  <circle cx="610.1" cy="1013.0" r="2.0" fill="white" opacity="0.31"/>
  <circle cx="654.2" cy="1011.5" r="1.9" fill="white" opacity="0.30"/>
  <circle cx="700.7" cy="1010.1" r="1.8" fill="white" opacity="0.28"/>
  <circle cx="748.4" cy="1009.7" r="1.7" fill="white" opacity="0.26"/>
  <circle cx="794.7" cy="1016.0" r="1.6" fill="white" opacity="0.24"/>
  <circle cx="839.7" cy="1014.6" r="1.5" fill="white" opacity="0.22"/>
  <circle cx="889.7" cy="1015.3" r="1.4" fill="white" opacity="0.19"/>
  <circle cx="931.3" cy="1009.9" r="1.3" fill="white" opacity="0.18"/>
  <circle cx="977.3" cy="1013.6" r="1.2" fill="white" opacity="0.15"/>
  <circle cx="1028.1" cy="1014.0" r="1.1" fill="white" opacity="0.13"/>
  <circle cx="51.4" cy="1060.0" r="1.7" fill="white" opacity="0.26"/>
  <circle cx="100.2" cy="1059.9" r="1.8" fill="white" opacity="0.28"/>
  <circle cx="148.7" cy="1057.4" r="1.9" fill="white" opacity="0.29"/>
  <circle cx="196.3" cy="1058.3" r="1.9" fill="#FF5898" opacity="0.43"/>
  <circle cx="240.1" cy="1060.7" r="2.0" fill="#FF5898" opacity="0.44"/>
  <circle cx="282.6" cy="1054.4" r="2.0" fill="white" opacity="0.32"/>
  <circle cx="330.1" cy="1056.0" r="2.0" fill="white" opacity="0.33"/>
  <circle cx="378.1" cy="1056.3" r="2.0" fill="white" opacity="0.33"/>
  <circle cx="420.7" cy="1060.5" r="2.0" fill="white" opacity="0.33"/>
  <circle cx="473.5" cy="1060.7" r="2.0" fill="#FF5898" opacity="0.45"/>
  <circle cx="516.9" cy="1057.5" r="2.0" fill="#FF5898" opacity="0.44"/>
  <circle cx="565.5" cy="1061.0" r="1.9" fill="white" opacity="0.30"/>
  <circle cx="611.9" cy="1059.0" r="1.9" fill="white" opacity="0.29"/>
  <circle cx="654.3" cy="1057.6" r="1.8" fill="white" opacity="0.28"/>
  <circle cx="699.2" cy="1054.3" r="1.7" fill="white" opacity="0.26"/>
  <circle cx="745.1" cy="1061.0" r="1.6" fill="white" opacity="0.24"/>
  <circle cx="793.3" cy="1059.5" r="1.5" fill="white" opacity="0.22"/>
  <circle cx="840.9" cy="1055.2" r="1.4" fill="white" opacity="0.20"/>
  <circle cx="885.1" cy="1057.3" r="1.3" fill="white" opacity="0.18"/>
  <circle cx="932.9" cy="1058.0" r="1.2" fill="white" opacity="0.16"/>
  <circle cx="977.0" cy="1056.8" r="1.1" fill="white" opacity="0.14"/>
  <circle cx="1024.3" cy="1057.1" r="1.0" fill="white" opacity="0.12"/>
  <circle cx="52.7" cy="1103.6" r="1.6" fill="white" opacity="0.24"/>
  <circle cx="102.6" cy="1104.0" r="1.7" fill="white" opacity="0.26"/>
  <circle cx="143.1" cy="1099.6" r="1.8" fill="white" opacity="0.27"/>
  <circle cx="194.3" cy="1101.1" r="1.8" fill="white" opacity="0.28"/>
  <circle cx="240.9" cy="1104.1" r="1.8" fill="white" opacity="0.29"/>
  <circle cx="288.7" cy="1105.8" r="1.9" fill="white" opacity="0.30"/>
  <circle cx="330.4" cy="1103.5" r="1.9" fill="white" opacity="0.30"/>
  <circle cx="376.8" cy="1106.6" r="1.9" fill="#FF5898" opacity="0.42"/>
  <circle cx="423.4" cy="1103.6" r="1.9" fill="#FF5898" opacity="0.42"/>
  <circle cx="469.0" cy="1101.9" r="1.9" fill="white" opacity="0.30"/>
  <circle cx="519.2" cy="1105.4" r="1.8" fill="white" opacity="0.29"/>
  <circle cx="564.5" cy="1105.5" r="1.8" fill="white" opacity="0.28"/>
  <circle cx="611.3" cy="1104.3" r="1.7" fill="white" opacity="0.27"/>
  <circle cx="655.9" cy="1104.0" r="1.7" fill="white" opacity="0.25"/>
  <circle cx="701.4" cy="1101.7" r="1.6" fill="white" opacity="0.24"/>
  <circle cx="747.2" cy="1100.3" r="1.5" fill="white" opacity="0.22"/>
  <circle cx="792.3" cy="1106.4" r="1.4" fill="white" opacity="0.20"/>
  <circle cx="840.7" cy="1100.7" r="1.4" fill="white" opacity="0.19"/>
  <circle cx="884.2" cy="1099.5" r="1.3" fill="white" opacity="0.17"/>
  <circle cx="936.2" cy="1099.7" r="1.2" fill="white" opacity="0.14"/>
  <circle cx="981.9" cy="1105.5" r="1.0" fill="white" opacity="0.12"/>
  <circle cx="1029.1" cy="1099.2" r="0.9" fill="white" opacity="0.10"/>
  <circle cx="52.7" cy="1150.0" r="1.5" fill="white" opacity="0.22"/>
  <circle cx="97.3" cy="1146.9" r="1.6" fill="white" opacity="0.23"/>
  <circle cx="143.9" cy="1150.5" r="1.6" fill="white" opacity="0.24"/>
  <circle cx="195.0" cy="1150.4" r="1.7" fill="white" opacity="0.26"/>
  <circle cx="236.5" cy="1147.4" r="1.7" fill="white" opacity="0.26"/>
  <circle cx="284.7" cy="1149.3" r="1.8" fill="white" opacity="0.27"/>
  <circle cx="329.6" cy="1147.4" r="1.8" fill="white" opacity="0.28"/>
  <circle cx="376.3" cy="1149.9" r="1.8" fill="white" opacity="0.28"/>
  <circle cx="423.9" cy="1148.2" r="1.8" fill="white" opacity="0.28"/>
  <circle cx="469.0" cy="1150.4" r="1.8" fill="white" opacity="0.27"/>
  <circle cx="516.6" cy="1150.6" r="1.7" fill="white" opacity="0.26"/>
  <circle cx="562.1" cy="1151.5" r="1.7" fill="white" opacity="0.25"/>
  <circle cx="613.3" cy="1147.6" r="1.6" fill="white" opacity="0.24"/>
  <circle cx="654.0" cy="1146.9" r="1.6" fill="white" opacity="0.23"/>
  <circle cx="702.2" cy="1151.6" r="1.5" fill="white" opacity="0.22"/>
  <circle cx="750.8" cy="1150.3" r="1.4" fill="white" opacity="0.20"/>
  <circle cx="791.7" cy="1145.9" r="1.4" fill="white" opacity="0.19"/>
  <circle cx="842.0" cy="1150.9" r="1.3" fill="white" opacity="0.17"/>
  <circle cx="887.6" cy="1144.7" r="1.2" fill="white" opacity="0.15"/>
  <circle cx="936.2" cy="1150.7" r="1.1" fill="white" opacity="0.13"/>
  <circle cx="978.0" cy="1150.0" r="1.0" fill="white" opacity="0.11"/>
  <circle cx="1024.2" cy="1151.1" r="0.9" fill="white" opacity="0.09"/>
  <circle cx="51.2" cy="1192.4" r="1.4" fill="white" opacity="0.20"/>
  <circle cx="103.9" cy="1190.7" r="1.5" fill="white" opacity="0.21"/>
  <circle cx="146.2" cy="1191.7" r="1.5" fill="white" opacity="0.22"/>
  <circle cx="189.1" cy="1189.4" r="1.6" fill="white" opacity="0.23"/>
  <circle cx="239.2" cy="1190.8" r="1.6" fill="white" opacity="0.24"/>
  <circle cx="289.4" cy="1191.9" r="1.6" fill="white" opacity="0.25"/>
  <circle cx="327.9" cy="1196.4" r="1.6" fill="white" opacity="0.25"/>
  <circle cx="380.7" cy="1194.1" r="1.7" fill="white" opacity="0.25"/>
  <circle cx="426.6" cy="1190.0" r="1.7" fill="white" opacity="0.25"/>
  <circle cx="468.9" cy="1195.6" r="1.6" fill="white" opacity="0.24"/>
  <circle cx="518.4" cy="1190.0" r="1.6" fill="white" opacity="0.24"/>
  <circle cx="564.8" cy="1192.5" r="1.6" fill="white" opacity="0.23"/>
  <circle cx="605.5" cy="1189.6" r="1.5" fill="white" opacity="0.22"/>
  <circle cx="653.8" cy="1195.6" r="1.5" fill="white" opacity="0.21"/>
  <circle cx="702.4" cy="1194.7" r="1.4" fill="white" opacity="0.20"/>
  <circle cx="748.5" cy="1189.8" r="1.3" fill="white" opacity="0.18"/>
  <circle cx="792.9" cy="1191.3" r="1.3" fill="white" opacity="0.17"/>
  <circle cx="837.2" cy="1192.3" r="1.2" fill="white" opacity="0.15"/>
  <circle cx="889.5" cy="1192.6" r="1.1" fill="white" opacity="0.13"/>
  <circle cx="930.3" cy="1196.2" r="1.0" fill="white" opacity="0.11"/>
  <circle cx="980.5" cy="1189.1" r="0.9" fill="white" opacity="0.09"/>
  <circle cx="1026.1" cy="1190.9" r="0.8" fill="white" opacity="0.07"/>
  <circle cx="51.1" cy="1237.4" r="1.3" fill="white" opacity="0.17"/>
  <circle cx="101.2" cy="1235.9" r="1.4" fill="white" opacity="0.19"/>
  <circle cx="145.9" cy="1239.3" r="1.4" fill="white" opacity="0.20"/>
  <circle cx="189.5" cy="1241.8" r="1.4" fill="white" opacity="0.20"/>
  <circle cx="235.7" cy="1238.2" r="1.5" fill="white" opacity="0.21"/>
  <circle cx="285.5" cy="1241.9" r="1.5" fill="white" opacity="0.22"/>
  <circle cx="332.1" cy="1237.1" r="1.5" fill="white" opacity="0.22"/>
  <circle cx="377.8" cy="1239.0" r="1.5" fill="white" opacity="0.22"/>
  <circle cx="428.1" cy="1236.0" r="1.5" fill="white" opacity="0.22"/>
  <circle cx="466.7" cy="1240.3" r="1.5" fill="white" opacity="0.22"/>
  <circle cx="515.6" cy="1239.8" r="1.5" fill="white" opacity="0.21"/>
  <circle cx="564.2" cy="1240.1" r="1.4" fill="white" opacity="0.21"/>
  <circle cx="611.3" cy="1236.6" r="1.4" fill="white" opacity="0.20"/>
  <circle cx="652.1" cy="1238.3" r="1.4" fill="white" opacity="0.19"/>
  <circle cx="704.5" cy="1235.4" r="1.3" fill="white" opacity="0.17"/>
  <circle cx="750.5" cy="1237.7" r="1.2" fill="white" opacity="0.16"/>
  <circle cx="796.1" cy="1239.0" r="1.2" fill="white" opacity="0.14"/>
  <circle cx="843.3" cy="1234.5" r="1.1" fill="white" opacity="0.13"/>
  <circle cx="889.4" cy="1237.6" r="1.0" fill="white" opacity="0.11"/>
  <circle cx="931.8" cy="1234.3" r="0.9" fill="white" opacity="0.09"/>
  <circle cx="977.3" cy="1234.3" r="0.8" fill="white" opacity="0.08"/>
  <circle cx="1029.5" cy="1238.1" r="0.7" fill="white" opacity="0.05"/>
  <circle cx="57.9" cy="1283.3" r="1.2" fill="white" opacity="0.15"/>
  <circle cx="98.3" cy="1285.0" r="1.2" fill="white" opacity="0.16"/>
  <circle cx="144.1" cy="1281.9" r="1.3" fill="white" opacity="0.17"/>
  <circle cx="195.1" cy="1285.9" r="1.3" fill="white" opacity="0.18"/>
  <circle cx="237.8" cy="1280.0" r="1.4" fill="white" opacity="0.19"/>
  <circle cx="284.4" cy="1286.1" r="1.4" fill="white" opacity="0.19"/>
  <circle cx="333.7" cy="1286.2" r="1.4" fill="white" opacity="0.20"/>
  <circle cx="377.1" cy="1286.8" r="1.4" fill="white" opacity="0.20"/>
  <circle cx="424.3" cy="1283.0" r="1.4" fill="white" opacity="0.20"/>
  <circle cx="474.0" cy="1283.2" r="1.4" fill="white" opacity="0.19"/>
  <circle cx="519.3" cy="1284.8" r="1.4" fill="white" opacity="0.19"/>
  <circle cx="559.8" cy="1283.8" r="1.3" fill="white" opacity="0.18"/>
  <circle cx="612.0" cy="1283.4" r="1.3" fill="white" opacity="0.17"/>
  <circle cx="654.3" cy="1279.6" r="1.3" fill="white" opacity="0.17"/>
  <circle cx="703.3" cy="1281.5" r="1.2" fill="white" opacity="0.15"/>
  <circle cx="749.1" cy="1282.4" r="1.1" fill="white" opacity="0.14"/>
  <circle cx="796.1" cy="1281.8" r="1.1" fill="white" opacity="0.12"/>
  <circle cx="837.2" cy="1286.0" r="1.0" fill="white" opacity="0.11"/>
  <circle cx="886.0" cy="1287.0" r="0.9" fill="white" opacity="0.09"/>
  <circle cx="931.6" cy="1286.8" r="0.8" fill="white" opacity="0.07"/>
  <circle cx="983.3" cy="1279.6" r="0.7" fill="white" opacity="0.06"/>
  <circle cx="1027.1" cy="1281.9" r="0.7" fill="white" opacity="0.05"/>
  <circle cx="378" cy="675" r="324" fill="url(#dfg)"/>
</svg>