<svg xmlns="http://www.w3.org/2000/svg" viewBox="0 0 1080 1350" width="1080" height="1350">
  <rect width="1080" height="1350" fill="#080808"/>
  
  <defs>
    <pattern id="g6" width="60" height="60" patternUnits="userSpaceOnUse">
      <path d="M 60 0 L 0 0 0 60" fill="none" stroke="white" stroke-width="0.7" opacity="0.09"/>
    </pattern>
  </defs>
  <rect width="1080" height="1350" fill="url(#g6)"/>
  <defs>
    <linearGradient id="sh1" x1="0" y1="0" x2="1" y2="0"><stop offset="0" stop-color="#FF5898" stop-opacity="0"/><stop offset="0.18" stop-color="#FF5898" stop-opacity="0.55"/><stop offset="0.82" stop-color="#FF5898" stop-opacity="0.55"/><stop offset="1" stop-color="#FF5898" stop-opacity="0"/></linearGradient>
    <linearGradient id="sh2" x1="0" y1="0" x2="0" y2="1"><stop offset="0" stop-color="#FF5898" stop-opacity="0"/><stop offset="0.5" stop-color="#FF5898" stop-opacity="0.14"/><stop offset="1" stop-color="#FF5898" stop-opacity="0"/></linearGradient>
    <radialGradient id="sh3" cx="540" cy="810" r="237" gradientUnits="userSpaceOnUse"><stop offset="0" stop-color="#FF5898" stop-opacity="0.25"/><stop offset="1" stop-color="#FF5898" stop-opacity="0"/></radialGradient>
  </defs>
  <rect x="0" y="662" width="1080" height="297" fill="url(#sh2)"/>
  <line x1="0" y1="810" x2="1080" y2="810" stroke="url(#sh1)" stroke-width="1"/>
  <line x1="540" y1="810" x2="0" y2="1350" stroke="#FF5898" stroke-width="0.7" opacity="0.030"/>
  <line x1="540" y1="810" x2="72" y2="1350" stroke="#FF5898" stroke-width="0.7" opacity="0.036"/>
  <line x1="540" y1="810" x2="144" y2="1350" stroke="#FF5898" stroke-width="0.7" opacity="0.042"/>
  <line x1="540" y1="810" x2="216" y2="1350" stroke="#FF5898" stroke-width="0.7" opacity="0.048"/>
  <line x1="540" y1="810" x2="288" y2="1350" stroke="#FF5898" stroke-width="0.7" opacity="0.052"/>
  <line x1="540" y1="810" x2="360" y2="1350" stroke="#FF5898" stroke-width="0.7" opacity="0.056"/>
  <line x1="540" y1="810" x2="432" y2="1350" stroke="#FF5898" stroke-width="0.7" opacity="0.059"/>
  <line x1="540" y1="810" x2="504" y2="1350" stroke="#FF5898" stroke-width="0.7" opacity="0.060"/>
  <line x1="540" y1="810" x2="576" y2="1350" stroke="#FF5898" stroke-width="0.7" opacity="0.060"/>
  <line x1="540" y1="810" x2="648" y2="1350" stroke="#FF5898" stroke-width="0.7" opacity="0.059"/>
  <line x1="540" y1="810" x2="720" y2="1350" stroke="#FF5898" stroke-width="0.7" opacity="0.056"/>
  <line x1="540" y1="810" x2="792" y2="1350" stroke="#FF5898" stroke-width="0.7" opacity="0.052"/>
  <line x1="540" y1="810" x2="864" y2="1350" stroke="#FF5898" stroke-width="0.7" opacity="0.048"/>
  <line x1="540" y1="810" x2="936" y2="1350" stroke="#FF5898" stroke-width="0.7" opacity="0.042"/>
  <line x1="540" y1="810" x2="1008" y2="1350" stroke="#FF5898" stroke-width="0.7" opacity="0.036"/>
  <line x1="540" y1="810" x2="1080" y2="1350" stroke="#FF5898" stroke-width="0.7" opacity="0.030"/>
  <line x1="54" y1="135" x2="431" y2="135" stroke="#FF5898" stroke-width="0.5" opacity="0.1"/>
  <line x1="54" y1="270" x2="485" y2="270" stroke="#FF5898" stroke-width="0.5" opacity="0.1"/>
  <line x1="54" y1="405" x2="540" y2="405" stroke="#FF5898" stroke-width="0.5" opacity="0.1"/>
  <line x1="54" y1="567" x2="604" y2="567" stroke="#FF5898" stroke-width="0.5" opacity="0.1"/>
  <line x1="54" y1="702" x2="658" y2="702" stroke="#FF5898" stroke-width="0.5" opacity="0.1"/>
  <circle cx="540" cy="810" r="237" fill="url(#sh3)"/>
  <circle cx="540" cy="810" r="4" fill="white" opacity="0.9"/>
  <circle cx="540" cy="810" r="2" fill="#FF5898"/>
</svg>